<mxfile host="app.diagrams.net" modified="2021-08-06T14:19:37.311Z" agent="5.0 (Windows NT 10.0; Win64; x64) AppleWebKit/537.36 (KHTML, like Gecko) Chrome/89.0.4389.90 Safari/537.36" etag="GfvJw7bL45HhaYPNDhmQ" version="14.9.2" type="github">
  <diagram id="JKbqIdM3FO0Cpz3SnD94" name="Page-1">
    <mxGraphModel dx="2222" dy="1572" grid="0" gridSize="10" guides="1" tooltips="1" connect="1" arrows="1" fold="1" page="0" pageScale="1" pageWidth="1654" pageHeight="1169" background="none" backgroundImage="{&quot;src&quot;:&quot;https://upload.wikimedia.org/wikipedia/commons/thumb/1/17/GraphQL_Logo.svg/1200px-GraphQL_Logo.svg.png&quot;,&quot;width&quot;:&quot;1200&quot;,&quot;height&quot;:&quot;1200&quot;}" math="0" shadow="1">
      <root>
        <mxCell id="0" />
        <mxCell id="1" parent="0" />
        <mxCell id="drN-csKsrVhMP1aqmD64-1" value="&lt;font style=&quot;font-size: 50px&quot;&gt;GraphQL API&lt;/font&gt;" style="text;html=1;resizable=0;autosize=1;align=center;verticalAlign=middle;points=[];fillColor=none;strokeColor=none;rounded=0;sketch=1;fontColor=#4D4D4D;" vertex="1" parent="1">
          <mxGeometry x="-213" y="163" width="306" height="31" as="geometry" />
        </mxCell>
        <mxCell id="drN-csKsrVhMP1aqmD64-3" value="&lt;font style=&quot;font-size: 24px&quot;&gt;Stateless, client-independent API for exchanging data - with higher query flexibility.&lt;/font&gt;" style="text;html=1;resizable=0;autosize=1;align=center;verticalAlign=middle;points=[];fillColor=none;strokeColor=none;rounded=0;sketch=1;fontColor=#4D4D4D;" vertex="1" parent="1">
          <mxGeometry x="-780" y="217" width="886" height="22" as="geometry" />
        </mxCell>
        <mxCell id="drN-csKsrVhMP1aqmD64-4" value="&lt;font style=&quot;font-size: 50px&quot;&gt;REST API&lt;/font&gt;" style="text;html=1;resizable=0;autosize=1;align=center;verticalAlign=middle;points=[];fillColor=none;strokeColor=none;rounded=0;sketch=1;fontColor=#4D4D4D;" vertex="1" parent="1">
          <mxGeometry x="-150" y="21" width="234" height="31" as="geometry" />
        </mxCell>
        <mxCell id="drN-csKsrVhMP1aqmD64-5" value="&lt;font style=&quot;font-size: 24px&quot;&gt;Stateless, client-independent API for exchanging data.&lt;/font&gt;" style="text;html=1;resizable=0;autosize=1;align=center;verticalAlign=middle;points=[];fillColor=none;strokeColor=none;rounded=0;sketch=1;fontColor=#4D4D4D;" vertex="1" parent="1">
          <mxGeometry x="-502" y="74" width="586" height="22" as="geometry" />
        </mxCell>
        <mxCell id="drN-csKsrVhMP1aqmD64-6" value="&lt;font style=&quot;font-size: 50px&quot;&gt;REST API Limitations&lt;/font&gt;" style="text;html=1;resizable=0;autosize=1;align=center;verticalAlign=middle;points=[];fillColor=none;strokeColor=none;rounded=0;sketch=1;fontColor=#4D4D4D;" vertex="1" parent="1">
          <mxGeometry x="355" y="-579" width="487" height="31" as="geometry" />
        </mxCell>
        <mxCell id="drN-csKsrVhMP1aqmD64-7" value="&lt;font style=&quot;font-size: 24px&quot;&gt;Eg. GET/post - fetching post&lt;br&gt;- one custom made endpoint&lt;br&gt;&lt;/font&gt;" style="text;html=1;resizable=0;autosize=1;align=center;verticalAlign=middle;points=[];fillColor=none;strokeColor=none;rounded=0;sketch=1;fontColor=#4D4D4D;" vertex="1" parent="1">
          <mxGeometry x="429" y="-407" width="314" height="40" as="geometry" />
        </mxCell>
        <mxCell id="drN-csKsrVhMP1aqmD64-8" value="&lt;font style=&quot;font-size: 24px&quot;&gt;{&lt;br&gt;&lt;span style=&quot;white-space: pre&quot;&gt;	&lt;/span&gt;&lt;b&gt;id&lt;/b&gt;: &#39;1&#39;,&lt;br&gt;&lt;span style=&quot;white-space: pre&quot;&gt;	&lt;/span&gt;&lt;b&gt;title&lt;/b&gt;: &#39;First Post&#39;,&lt;br&gt;&lt;span style=&quot;white-space: pre&quot;&gt;	&lt;/span&gt;&lt;b&gt;content&lt;/b&gt;: &#39; ... content ...&#39;,&lt;br&gt;&lt;span style=&quot;white-space: pre&quot;&gt;	&lt;/span&gt;&lt;b&gt;creator&lt;/b&gt;: &#39;{&lt;br&gt;&lt;span style=&quot;white-space: pre&quot;&gt;	&lt;/span&gt;&lt;span style=&quot;white-space: pre&quot;&gt;	&lt;/span&gt;&lt;b&gt;id&lt;/b&gt;: &#39;author1&#39;, &lt;span style=&quot;white-space: pre&quot;&gt;	&lt;/span&gt;&lt;span style=&quot;white-space: pre&quot;&gt;	&lt;/span&gt;&lt;b&gt;authorName&lt;/b&gt;: &#39;...&#39;&lt;br&gt;&lt;span style=&quot;white-space: pre&quot;&gt;	&lt;/span&gt;}&#39;&lt;br&gt;}&lt;/font&gt;" style="text;html=1;strokeColor=none;fillColor=none;align=left;verticalAlign=middle;whiteSpace=wrap;rounded=0;sketch=1;fontColor=#4D4D4D;" vertex="1" parent="1">
          <mxGeometry x="451" y="-196" width="335.5" height="20" as="geometry" />
        </mxCell>
        <mxCell id="drN-csKsrVhMP1aqmD64-9" value="&lt;font style=&quot;font-size: 24px&quot;&gt;GET/post-slim - new Endpoint&amp;nbsp;&lt;/font&gt;" style="text;html=1;resizable=0;autosize=1;align=center;verticalAlign=middle;points=[];fillColor=none;strokeColor=none;rounded=0;sketch=1;fontColor=#4D4D4D;" vertex="1" parent="1">
          <mxGeometry x="949" y="-306" width="335" height="22" as="geometry" />
        </mxCell>
        <mxCell id="drN-csKsrVhMP1aqmD64-10" value="&lt;font style=&quot;font-size: 24px&quot;&gt;If we need only &lt;b&gt;title &lt;/b&gt;and &lt;b&gt;id &lt;/b&gt;properties?&lt;/font&gt;" style="text;html=1;resizable=0;autosize=1;align=center;verticalAlign=middle;points=[];fillColor=none;strokeColor=none;rounded=0;sketch=1;fontColor=#4D4D4D;" vertex="1" parent="1">
          <mxGeometry x="945" y="-389" width="422" height="22" as="geometry" />
        </mxCell>
        <mxCell id="drN-csKsrVhMP1aqmD64-11" value="&lt;font style=&quot;font-size: 24px&quot;&gt;Use Query params&amp;nbsp; - GET /post?data=slim&amp;nbsp;&lt;/font&gt;" style="text;html=1;resizable=0;autosize=1;align=center;verticalAlign=middle;points=[];fillColor=none;strokeColor=none;rounded=0;sketch=1;fontColor=#4D4D4D;" vertex="1" parent="1">
          <mxGeometry x="949" y="-256" width="470" height="22" as="geometry" />
        </mxCell>
        <mxCell id="drN-csKsrVhMP1aqmD64-12" value="&lt;font style=&quot;font-size: 24px&quot;&gt;Use GraphQL&amp;nbsp;&lt;/font&gt;" style="text;html=1;resizable=0;autosize=1;align=center;verticalAlign=middle;points=[];fillColor=none;strokeColor=none;rounded=0;sketch=1;fontColor=#4D4D4D;" vertex="1" parent="1">
          <mxGeometry x="949" y="-206" width="164" height="22" as="geometry" />
        </mxCell>
        <mxCell id="drN-csKsrVhMP1aqmD64-13" value="" style="rounded=0;whiteSpace=wrap;html=1;sketch=1;strokeColor=none;" vertex="1" parent="1">
          <mxGeometry x="945" y="-323" width="474" height="229" as="geometry" />
        </mxCell>
        <mxCell id="drN-csKsrVhMP1aqmD64-14" value="&lt;font style=&quot;font-size: 24px&quot;&gt;&lt;br&gt;Node + Express&lt;br&gt;One endpoint for everything..&lt;br&gt;No extra backend work, no frontend downtime.&lt;/font&gt;" style="text;html=1;resizable=0;autosize=1;align=left;verticalAlign=middle;points=[];fillColor=none;strokeColor=none;rounded=0;sketch=1;fontColor=#4D4D4D;" vertex="1" parent="1">
          <mxGeometry x="1210" y="736" width="506" height="76" as="geometry" />
        </mxCell>
        <mxCell id="drN-csKsrVhMP1aqmD64-15" value="&lt;font style=&quot;font-size: 50px&quot;&gt;GraphQL API&lt;/font&gt;" style="text;html=1;resizable=0;autosize=1;align=center;verticalAlign=middle;points=[];fillColor=none;strokeColor=none;rounded=0;sketch=1;fontColor=#4D4D4D;" vertex="1" parent="1">
          <mxGeometry x="1211" y="689" width="306" height="31" as="geometry" />
        </mxCell>
        <mxCell id="drN-csKsrVhMP1aqmD64-17" value="&lt;font style=&quot;font-size: 36px&quot; color=&quot;#808080&quot;&gt;Client&lt;/font&gt;" style="rounded=1;whiteSpace=wrap;html=1;sketch=1;fontColor=#333333;strokeColor=#666666;fillColor=#f5f5f5;glass=1;" vertex="1" parent="1">
          <mxGeometry x="1208" y="859" width="112" height="203" as="geometry" />
        </mxCell>
        <mxCell id="drN-csKsrVhMP1aqmD64-18" value="&lt;font style=&quot;font-size: 20px&quot; color=&quot;#808080&quot;&gt;Single Endpoint&lt;br&gt;/graphql&lt;br&gt;&lt;/font&gt;" style="rounded=1;whiteSpace=wrap;html=1;sketch=1;fontColor=#333333;strokeColor=#666666;fillColor=#f5f5f5;glass=1;arcSize=23;verticalAlign=middle;" vertex="1" parent="1">
          <mxGeometry x="1696" y="882" width="89" height="173" as="geometry" />
        </mxCell>
        <mxCell id="drN-csKsrVhMP1aqmD64-19" value="&lt;font style=&quot;font-size: 36px&quot; color=&quot;#808080&quot;&gt;Server&lt;/font&gt;" style="rounded=1;whiteSpace=wrap;html=1;sketch=1;fontColor=#333333;strokeColor=#666666;fillColor=#f5f5f5;glass=1;" vertex="1" parent="1">
          <mxGeometry x="1792" y="863" width="112" height="203" as="geometry" />
        </mxCell>
        <mxCell id="drN-csKsrVhMP1aqmD64-20" value="&lt;font style=&quot;font-size: 15px&quot; color=&quot;#808080&quot;&gt;Server side logic, Database Access etc.&lt;/font&gt;" style="rounded=1;whiteSpace=wrap;html=1;sketch=1;fontColor=#333333;strokeColor=#666666;fillColor=#f5f5f5;glass=1;verticalAlign=top;" vertex="1" parent="1">
          <mxGeometry x="1902" y="883" width="94" height="172" as="geometry" />
        </mxCell>
        <mxCell id="drN-csKsrVhMP1aqmD64-22" value="" style="strokeWidth=2;html=1;shape=mxgraph.flowchart.database;whiteSpace=wrap;rounded=1;glass=1;sketch=1;fontColor=#333333;fillColor=#f5f5f5;verticalAlign=middle;strokeColor=#666666;" vertex="1" parent="1">
          <mxGeometry x="1965" y="995" width="60" height="60" as="geometry" />
        </mxCell>
        <mxCell id="drN-csKsrVhMP1aqmD64-27" value="&lt;font style=&quot;font-size: 20px&quot;&gt;POST /graphql&lt;br&gt;&lt;br&gt;&lt;br&gt;&lt;br&gt;POST Request containing Query Expression&lt;br&gt;&lt;/font&gt;" style="verticalLabelPosition=bottom;verticalAlign=top;html=1;strokeWidth=2;shape=mxgraph.arrows2.arrow;dy=0.6;dx=40;notch=0;rounded=1;glass=1;sketch=1;fillColor=#f5f5f5;strokeColor=#666666;fontColor=#333333;" vertex="1" parent="1">
          <mxGeometry x="1346" y="925.5" width="323" height="70" as="geometry" />
        </mxCell>
        <mxCell id="drN-csKsrVhMP1aqmD64-30" value="&lt;span style=&quot;font-size: 25px&quot;&gt;POST /graphql {&lt;br&gt;&lt;span style=&quot;white-space: pre&quot;&gt;	&lt;span style=&quot;white-space: pre&quot;&gt;	&lt;/span&gt;&lt;span style=&quot;white-space: pre&quot;&gt;	&lt;/span&gt;&lt;span style=&quot;white-space: pre&quot;&gt;	&lt;/span&gt;&lt;/span&gt;query {&lt;br&gt;&lt;span style=&quot;white-space: pre&quot;&gt;	&lt;/span&gt;&lt;span style=&quot;white-space: pre&quot;&gt;	&lt;/span&gt;&lt;span style=&quot;white-space: pre&quot;&gt;	&lt;span style=&quot;white-space: pre&quot;&gt;	&lt;/span&gt;&lt;span style=&quot;white-space: pre&quot;&gt;	&lt;/span&gt;&lt;span style=&quot;white-space: pre&quot;&gt;	&lt;/span&gt;&lt;/span&gt;user {&lt;br&gt;&lt;span style=&quot;white-space: pre&quot;&gt;	&lt;/span&gt;&lt;span style=&quot;white-space: pre&quot;&gt;	&lt;/span&gt;&lt;span style=&quot;white-space: pre&quot;&gt;	&lt;/span&gt;&lt;span style=&quot;white-space: pre&quot;&gt;	&lt;/span&gt;&lt;span style=&quot;white-space: pre&quot;&gt;	&lt;span style=&quot;white-space: pre&quot;&gt;	&lt;/span&gt;&lt;span style=&quot;white-space: pre&quot;&gt;	&lt;/span&gt;&lt;span style=&quot;white-space: pre&quot;&gt;	&lt;span style=&quot;white-space: pre&quot;&gt;	&lt;/span&gt;&lt;/span&gt;&lt;/span&gt;name&lt;br&gt;&lt;span style=&quot;white-space: pre&quot;&gt;	&lt;/span&gt;&lt;span style=&quot;white-space: pre&quot;&gt;	&lt;/span&gt;&lt;span style=&quot;white-space: pre&quot;&gt;	&lt;/span&gt;&lt;span style=&quot;white-space: pre&quot;&gt;	&lt;/span&gt;&lt;span style=&quot;white-space: pre&quot;&gt;	&lt;span style=&quot;white-space: pre&quot;&gt;	&lt;/span&gt;&lt;span style=&quot;white-space: pre&quot;&gt;	&lt;/span&gt;&lt;span style=&quot;white-space: pre&quot;&gt;	&lt;span style=&quot;white-space: pre&quot;&gt;	&lt;/span&gt;&lt;/span&gt;&lt;/span&gt;age&lt;br&gt;&lt;span style=&quot;white-space: pre&quot;&gt;	&lt;/span&gt;&lt;span style=&quot;white-space: pre&quot;&gt;	&lt;/span&gt;&lt;span style=&quot;white-space: pre&quot;&gt;	&lt;/span&gt;&lt;span style=&quot;white-space: pre&quot;&gt;	&lt;/span&gt;&lt;span style=&quot;white-space: pre&quot;&gt;	&lt;/span&gt;&lt;span style=&quot;white-space: pre&quot;&gt;	&lt;/span&gt;&lt;span style=&quot;white-space: pre&quot;&gt;	&lt;/span&gt;}&lt;br&gt;&lt;span style=&quot;white-space: pre&quot;&gt;	&lt;/span&gt;&lt;span style=&quot;white-space: pre&quot;&gt;	&lt;/span&gt;&lt;span style=&quot;white-space: pre&quot;&gt;	&lt;/span&gt;&lt;span style=&quot;white-space: pre&quot;&gt;	&lt;/span&gt;&lt;span style=&quot;white-space: pre&quot;&gt;	&lt;/span&gt;&lt;span style=&quot;white-space: pre&quot;&gt;	&lt;/span&gt;}&lt;br&gt;&lt;span style=&quot;white-space: pre&quot;&gt;	&lt;/span&gt;&lt;span style=&quot;white-space: pre&quot;&gt;	&lt;/span&gt;&lt;span style=&quot;white-space: pre&quot;&gt;	&lt;/span&gt;&lt;span style=&quot;white-space: pre&quot;&gt;	&lt;/span&gt;}&lt;br&gt;&lt;/span&gt;" style="text;html=1;strokeColor=none;fillColor=none;align=center;verticalAlign=middle;whiteSpace=wrap;rounded=0;glass=1;sketch=1;fontColor=#4D4D4D;" vertex="1" parent="1">
          <mxGeometry x="373" y="1348" width="274" height="20" as="geometry" />
        </mxCell>
        <mxCell id="drN-csKsrVhMP1aqmD64-31" value="&lt;div style=&quot;text-align: justify&quot;&gt;&lt;span style=&quot;font-size: 25px&quot;&gt;&lt;br&gt;&lt;/span&gt;&lt;/div&gt;&lt;span style=&quot;font-size: 25px&quot;&gt;&lt;div style=&quot;text-align: justify&quot;&gt;&lt;span&gt;&lt;br&gt;&lt;/span&gt;&lt;/div&gt;&lt;div style=&quot;text-align: justify&quot;&gt;&lt;span&gt;&lt;br&gt;&lt;/span&gt;&lt;/div&gt;&lt;div style=&quot;text-align: justify&quot;&gt;&lt;span&gt;&lt;b&gt;Operation type&lt;/b&gt;&lt;/span&gt;&lt;/div&gt;&lt;div style=&quot;text-align: justify&quot;&gt;&lt;span&gt;query - (GET), mutation - (POST, PUT PATCH, DELETE), subscription- (Websockets rt connection)&lt;/span&gt;&lt;br&gt;&lt;/div&gt;&lt;div style=&quot;text-align: justify&quot;&gt;&lt;span&gt;&lt;br&gt;&lt;/span&gt;&lt;/div&gt;&lt;div style=&quot;text-align: justify&quot;&gt;&amp;nbsp;&lt;b&gt;Operation Endpoint&lt;/b&gt;&lt;/div&gt;&lt;div style=&quot;text-align: justify&quot;&gt;&lt;span&gt;user - (developer defined)&amp;nbsp;&lt;/span&gt;&lt;br&gt;&lt;/div&gt;&lt;span&gt;&lt;div style=&quot;text-align: justify&quot;&gt;&lt;span&gt;&lt;br&gt;&lt;/span&gt;&lt;/div&gt;&lt;div style=&quot;text-align: justify&quot;&gt;&lt;span&gt;&lt;b&gt;Requested fields&lt;/b&gt;&lt;/span&gt;&lt;/div&gt;&lt;div style=&quot;text-align: justify&quot;&gt;&lt;span&gt;name&amp;nbsp;&lt;/span&gt;&lt;br&gt;&lt;/div&gt;&lt;/span&gt;&lt;span&gt;&lt;div style=&quot;text-align: justify&quot;&gt;&lt;span&gt;age&amp;nbsp;&lt;/span&gt;&lt;/div&gt;	&lt;/span&gt;&lt;/span&gt;&lt;div style=&quot;text-align: justify&quot;&gt;&lt;span style=&quot;font-size: 25px&quot;&gt;&lt;br&gt;&lt;/span&gt;&lt;/div&gt;" style="text;html=1;strokeColor=none;fillColor=none;align=left;verticalAlign=middle;whiteSpace=wrap;rounded=0;glass=1;sketch=1;fontColor=#4D4D4D;" vertex="1" parent="1">
          <mxGeometry x="413" y="1673" width="1152" height="20" as="geometry" />
        </mxCell>
        <mxCell id="drN-csKsrVhMP1aqmD64-32" value="&lt;font style=&quot;font-size: 24px&quot;&gt;Multiple endpoints (GET /users, POST /products ... )&lt;br&gt;&lt;/font&gt;" style="text;html=1;resizable=0;autosize=1;align=center;verticalAlign=middle;points=[];fillColor=none;strokeColor=none;rounded=0;sketch=1;fontColor=#4D4D4D;" vertex="1" parent="1">
          <mxGeometry x="314" y="-493" width="564" height="22" as="geometry" />
        </mxCell>
        <mxCell id="drN-csKsrVhMP1aqmD64-36" value="&lt;font style=&quot;font-size: 27px&quot;&gt;REST API&lt;/font&gt;" style="text;html=1;resizable=0;autosize=1;align=left;verticalAlign=middle;points=[];fillColor=none;strokeColor=none;rounded=0;sketch=1;fontColor=#4D4D4D;fontStyle=1" vertex="1" parent="1">
          <mxGeometry x="1243" y="214" width="134" height="23" as="geometry" />
        </mxCell>
        <mxCell id="drN-csKsrVhMP1aqmD64-37" value="&lt;font style=&quot;font-size: 27px&quot;&gt;GraphQL API&lt;/font&gt;" style="text;html=1;resizable=0;autosize=1;align=left;verticalAlign=middle;points=[];fillColor=none;strokeColor=none;rounded=0;sketch=1;fontColor=#4D4D4D;fontStyle=1" vertex="1" parent="1">
          <mxGeometry x="1742.5" y="218.5" width="178" height="23" as="geometry" />
        </mxCell>
        <mxCell id="drN-csKsrVhMP1aqmD64-38" value="&lt;span style=&quot;font-size: 24px&quot;&gt;POST /user {name: &#39;George&#39;}&lt;/span&gt;" style="text;html=1;resizable=0;autosize=1;align=left;verticalAlign=middle;points=[];fillColor=none;strokeColor=none;rounded=0;sketch=1;fontColor=#4D4D4D;" vertex="1" parent="1">
          <mxGeometry x="1190" y="263.5" width="320" height="22" as="geometry" />
        </mxCell>
        <mxCell id="drN-csKsrVhMP1aqmD64-41" style="edgeStyle=orthogonalEdgeStyle;curved=0;rounded=1;sketch=1;orthogonalLoop=1;jettySize=auto;html=1;fontColor=#4D4D4D;fillColor=#f5f5f5;strokeColor=#666666;" edge="1" parent="1" source="drN-csKsrVhMP1aqmD64-40">
          <mxGeometry relative="1" as="geometry">
            <mxPoint x="1219.4999999999995" y="293.5" as="targetPoint" />
          </mxGeometry>
        </mxCell>
        <mxCell id="drN-csKsrVhMP1aqmD64-40" value="Http verb" style="rounded=0;whiteSpace=wrap;html=1;glass=1;sketch=1;verticalAlign=top;" vertex="1" parent="1">
          <mxGeometry x="1186" y="348.5" width="67" height="32" as="geometry" />
        </mxCell>
        <mxCell id="drN-csKsrVhMP1aqmD64-42" style="edgeStyle=orthogonalEdgeStyle;curved=0;rounded=1;sketch=1;orthogonalLoop=1;jettySize=auto;html=1;fontColor=#4D4D4D;fillColor=#f5f5f5;strokeColor=#666666;" edge="1" parent="1" source="drN-csKsrVhMP1aqmD64-43">
          <mxGeometry relative="1" as="geometry">
            <mxPoint x="1300.4999999999995" y="293.5" as="targetPoint" />
          </mxGeometry>
        </mxCell>
        <mxCell id="drN-csKsrVhMP1aqmD64-43" value="Path" style="rounded=0;whiteSpace=wrap;html=1;glass=1;sketch=1;verticalAlign=top;" vertex="1" parent="1">
          <mxGeometry x="1267" y="348.5" width="67" height="32" as="geometry" />
        </mxCell>
        <mxCell id="drN-csKsrVhMP1aqmD64-44" style="edgeStyle=orthogonalEdgeStyle;curved=0;rounded=1;sketch=1;orthogonalLoop=1;jettySize=auto;html=1;fontColor=#4D4D4D;fillColor=#f5f5f5;strokeColor=#666666;" edge="1" parent="1" source="drN-csKsrVhMP1aqmD64-45">
          <mxGeometry relative="1" as="geometry">
            <mxPoint x="1410.4999999999995" y="293.5" as="targetPoint" />
          </mxGeometry>
        </mxCell>
        <mxCell id="drN-csKsrVhMP1aqmD64-45" value="Body" style="rounded=0;whiteSpace=wrap;html=1;glass=1;sketch=1;verticalAlign=top;" vertex="1" parent="1">
          <mxGeometry x="1377" y="348.5" width="67" height="32" as="geometry" />
        </mxCell>
        <mxCell id="drN-csKsrVhMP1aqmD64-46" value="&lt;span style=&quot;font-size: 24px&quot;&gt;POST /graphql {query: &#39;query: ...&#39;}&lt;/span&gt;" style="text;html=1;resizable=0;autosize=1;align=left;verticalAlign=middle;points=[];fillColor=none;strokeColor=none;rounded=0;sketch=1;fontColor=#4D4D4D;" vertex="1" parent="1">
          <mxGeometry x="1679.5" y="263.5" width="367" height="22" as="geometry" />
        </mxCell>
        <mxCell id="drN-csKsrVhMP1aqmD64-47" style="edgeStyle=orthogonalEdgeStyle;curved=0;rounded=1;sketch=1;orthogonalLoop=1;jettySize=auto;html=1;fontColor=#4D4D4D;fillColor=#f5f5f5;strokeColor=#666666;" edge="1" parent="1" source="drN-csKsrVhMP1aqmD64-48">
          <mxGeometry relative="1" as="geometry">
            <mxPoint x="1708.9999999999995" y="293.5" as="targetPoint" />
          </mxGeometry>
        </mxCell>
        <mxCell id="drN-csKsrVhMP1aqmD64-48" value="Http verb" style="rounded=0;whiteSpace=wrap;html=1;glass=1;sketch=1;verticalAlign=top;" vertex="1" parent="1">
          <mxGeometry x="1675.5" y="348.5" width="67" height="32" as="geometry" />
        </mxCell>
        <mxCell id="drN-csKsrVhMP1aqmD64-49" style="edgeStyle=orthogonalEdgeStyle;curved=0;rounded=1;sketch=1;orthogonalLoop=1;jettySize=auto;html=1;fontColor=#4D4D4D;fillColor=#f5f5f5;strokeColor=#666666;" edge="1" parent="1" source="drN-csKsrVhMP1aqmD64-50">
          <mxGeometry relative="1" as="geometry">
            <mxPoint x="1789.9999999999995" y="293.5" as="targetPoint" />
          </mxGeometry>
        </mxCell>
        <mxCell id="drN-csKsrVhMP1aqmD64-50" value="Path" style="rounded=0;whiteSpace=wrap;html=1;glass=1;sketch=1;verticalAlign=top;" vertex="1" parent="1">
          <mxGeometry x="1756.5" y="348.5" width="67" height="32" as="geometry" />
        </mxCell>
        <mxCell id="drN-csKsrVhMP1aqmD64-51" style="edgeStyle=orthogonalEdgeStyle;curved=0;rounded=1;sketch=1;orthogonalLoop=1;jettySize=auto;html=1;fontColor=#4D4D4D;fillColor=#f5f5f5;strokeColor=#666666;" edge="1" parent="1" source="drN-csKsrVhMP1aqmD64-52">
          <mxGeometry relative="1" as="geometry">
            <mxPoint x="1937.9999999999995" y="293.5" as="targetPoint" />
          </mxGeometry>
        </mxCell>
        <mxCell id="drN-csKsrVhMP1aqmD64-52" value="Body" style="rounded=0;whiteSpace=wrap;html=1;glass=1;sketch=1;verticalAlign=top;" vertex="1" parent="1">
          <mxGeometry x="1905" y="350.5" width="66.5" height="30" as="geometry" />
        </mxCell>
      </root>
    </mxGraphModel>
  </diagram>
</mxfile>
